#Comment line ignore any data following # character 
#Hierarchical Translation and Rotation (.htr) file 
[Header]	
#Header keywords are followed by a single value 
FileType HTR		#Single word string
DataType HTRS		#Translation followed by rotation and scale data
FileVersion 1		#integer
NumSegments 84		#integer
NumFrames 2		#integer
DataFrameRate 30		#integer, data frame rate in this file
EulerRotationOrder ZYX
CalibrationUnits mm
RotationUnits Degrees
GlobalAxisofGravity Y
BoneLengthAxis Y
ScaleFactor 1.00
[SegmentNames&Hierarchy]
#CHILD	PARENT
MASTER GLOBAL
root MASTER
chest root
L_mid_tent01 root
R_mid_tent01 root
spine01 root
Bip01_Neck chest
L_humerus chest
R_humerus chest
weapon_bone chest
Bip01_Head Bip01_Neck
eye_left_bone Bip01_Head
eye_right_bone Bip01_Head
L_forearm L_humerus
L_front_hand L_forearm
L_weapon_bone L_forearm
L_front_hand01_01 L_front_hand
L_front_hand02_01 L_front_hand
L_front_hand03_01 L_front_hand
L_front_hand01_02 L_front_hand01_01
L_front_hand02_02 L_front_hand02_01
L_front_hand03_02 L_front_hand03_01
R_forearm R_humerus
R_front_hand R_forearm
R_weapon_bone R_forearm
R_front_hand01_01 R_front_hand
R_front_hand02_01 R_front_hand
R_front_hand03_01 R_front_hand
R_front_hand01_02 R_front_hand01_01
R_front_hand02_02 R_front_hand02_01
R_front_hand03_02 R_front_hand03_01
null_rope01_connect L_mid_tent01
Rope1_Seg01 null_rope01_connect
Rope1_Seg02 Rope1_Seg01
Rope1_Seg03 Rope1_Seg02
Rope1_Seg04 Rope1_Seg03
Rope1_Seg05 Rope1_Seg04
Rope1_Seg06 Rope1_Seg05
Rope1_Seg07 Rope1_Seg06
Rope1_Seg09 Rope1_Seg07
L_mid_hand01 Rope1_Seg09
L_mid_hand02 Rope1_Seg09
L_mid_hand03 Rope1_Seg09
null_rope02_connect R_mid_tent01
Rope2_Seg01 null_rope02_connect
Rope2_Seg02 Rope2_Seg01
Rope2_Seg03 Rope2_Seg02
Rope2_Seg04 Rope2_Seg03
Rope2_Seg05 Rope2_Seg04
Rope2_Seg06 Rope2_Seg05
Rope2_Seg07 Rope2_Seg06
Rope2_Seg09 Rope2_Seg07
R_mid_hand01 Rope2_Seg09
R_mid_hand02 Rope2_Seg09
R_mid_hand03 Rope2_Seg09
spine02 spine01
spine03 spine02
pelvis spine03
null_rope03_connect pelvis
null_rope04_connect pelvis
Rope3_Seg01 null_rope03_connect
Rope3_Seg02 Rope3_Seg01
Rope3_Seg03 Rope3_Seg02
Rope3_Seg04 Rope3_Seg03
Rope3_Seg05 Rope3_Seg04
Rope3_Seg06 Rope3_Seg05
Rope3_Seg07 Rope3_Seg06
Rope3_Seg08 Rope3_Seg07
Rope3_Seg09 Rope3_Seg08
R_rear_hand01 Rope3_Seg09
R_rear_hand02 Rope3_Seg09
R_rear_hand03 Rope3_Seg09
Rope4_Seg01 null_rope04_connect
Rope4_Seg02 Rope4_Seg01
Rope4_Seg03 Rope4_Seg02
Rope4_Seg04 Rope4_Seg03
Rope4_Seg05 Rope4_Seg04
Rope4_Seg06 Rope4_Seg05
Rope4_Seg07 Rope4_Seg06
Rope4_Seg08 Rope4_Seg07
Rope4_Seg09 Rope4_Seg08
L_rear_hand01 Rope4_Seg09
L_rear_hand02 Rope4_Seg09
L_rear_hand03 Rope4_Seg09
[BasePosition]
#SegmentName Tx, Ty, Tz, Rx, Ry, Rz, BoneLength
MASTER 0.000000 0.000000 0.000000 -90.000000 0.000000 0.000000 10.000000 
root 0.000000 0.000000 0.000000 0.000000 0.000000 0.000000 10.000000 
chest 0.000000 0.000000 0.000000 0.000000 0.000000 0.000000 10.000000 
L_mid_tent01 0.000000 0.000000 0.000000 0.000000 0.000000 0.000000 10.000000 
R_mid_tent01 0.000000 0.000000 0.000000 0.000000 0.000000 0.000000 10.000000 
spine01 0.000000 0.000000 0.000000 0.000000 0.000000 0.000000 10.000000 
Bip01_Neck 0.000000 0.000000 0.000000 0.000000 0.000000 0.000000 10.000000 
L_humerus 0.000000 0.000000 0.000000 0.000000 0.000000 0.000000 10.000000 
R_humerus 0.000000 0.000000 0.000000 0.000000 0.000000 0.000000 10.000000 
weapon_bone 0.000000 0.000000 0.000000 0.000000 0.000000 0.000000 10.000000 
Bip01_Head 0.000000 0.000000 0.000000 0.000000 0.000000 0.000000 10.000000 
eye_left_bone 0.000000 0.000000 0.000000 0.000000 0.000000 0.000000 10.000000 
eye_right_bone 0.000000 0.000000 0.000000 0.000000 0.000000 0.000000 10.000000 
L_forearm 0.000000 0.000000 0.000000 0.000000 0.000000 0.000000 10.000000 
L_front_hand 0.000000 0.000000 0.000000 0.000000 0.000000 0.000000 10.000000 
L_weapon_bone 0.000000 0.000000 0.000000 0.000000 0.000000 0.000000 10.000000 
L_front_hand01_01 0.000000 0.000000 0.000000 0.000000 0.000000 0.000000 10.000000 
L_front_hand02_01 0.000000 0.000000 0.000000 0.000000 0.000000 0.000000 10.000000 
L_front_hand03_01 0.000000 0.000000 0.000000 0.000000 0.000000 0.000000 10.000000 
L_front_hand01_02 0.000000 0.000000 0.000000 0.000000 0.000000 0.000000 10.000000 
L_front_hand02_02 0.000000 0.000000 0.000000 0.000000 0.000000 0.000000 10.000000 
L_front_hand03_02 0.000000 0.000000 0.000000 0.000000 0.000000 0.000000 10.000000 
R_forearm 0.000000 0.000000 0.000000 0.000000 0.000000 0.000000 10.000000 
R_front_hand 0.000000 0.000000 0.000000 0.000000 0.000000 0.000000 10.000000 
R_weapon_bone 0.000000 0.000000 0.000000 0.000000 0.000000 0.000000 10.000000 
R_front_hand01_01 0.000000 0.000000 0.000000 0.000000 0.000000 0.000000 10.000000 
R_front_hand02_01 0.000000 0.000000 0.000000 0.000000 0.000000 0.000000 10.000000 
R_front_hand03_01 0.000000 0.000000 0.000000 0.000000 0.000000 0.000000 10.000000 
R_front_hand01_02 0.000000 0.000000 0.000000 0.000000 0.000000 0.000000 10.000000 
R_front_hand02_02 0.000000 0.000000 0.000000 0.000000 0.000000 0.000000 10.000000 
R_front_hand03_02 0.000000 0.000000 0.000000 0.000000 0.000000 0.000000 10.000000 
null_rope01_connect 0.000000 0.000000 0.000000 0.000000 0.000000 0.000000 10.000000 
Rope1_Seg01 0.000000 0.000000 0.000000 0.000000 0.000000 0.000000 10.000000 
Rope1_Seg02 0.000000 0.000000 0.000000 0.000000 0.000000 0.000000 10.000000 
Rope1_Seg03 0.000000 0.000000 0.000000 0.000000 0.000000 0.000000 10.000000 
Rope1_Seg04 0.000000 0.000000 0.000000 0.000000 0.000000 0.000000 10.000000 
Rope1_Seg05 0.000000 0.000000 0.000000 0.000000 0.000000 0.000000 10.000000 
Rope1_Seg06 0.000000 0.000000 0.000000 0.000000 0.000000 0.000000 10.000000 
Rope1_Seg07 0.000000 0.000000 0.000000 0.000000 0.000000 0.000000 10.000000 
Rope1_Seg09 0.000000 0.000000 0.000000 0.000000 0.000000 0.000000 10.000000 
L_mid_hand01 0.000000 0.000000 0.000000 0.000000 0.000000 0.000000 10.000000 
L_mid_hand02 0.000000 0.000000 0.000000 0.000000 0.000000 0.000000 10.000000 
L_mid_hand03 0.000000 0.000000 0.000000 0.000000 0.000000 0.000000 10.000000 
null_rope02_connect 0.000000 0.000000 0.000000 0.000000 0.000000 0.000000 10.000000 
Rope2_Seg01 0.000000 0.000000 0.000000 0.000000 0.000000 0.000000 10.000000 
Rope2_Seg02 0.000000 0.000000 0.000000 0.000000 0.000000 0.000000 10.000000 
Rope2_Seg03 0.000000 0.000000 0.000000 0.000000 0.000000 0.000000 10.000000 
Rope2_Seg04 0.000000 0.000000 0.000000 0.000000 0.000000 0.000000 10.000000 
Rope2_Seg05 0.000000 0.000000 0.000000 0.000000 0.000000 0.000000 10.000000 
Rope2_Seg06 0.000000 0.000000 0.000000 0.000000 0.000000 0.000000 10.000000 
Rope2_Seg07 0.000000 0.000000 0.000000 0.000000 0.000000 0.000000 10.000000 
Rope2_Seg09 0.000000 0.000000 0.000000 0.000000 0.000000 0.000000 10.000000 
R_mid_hand01 0.000000 0.000000 0.000000 0.000000 0.000000 0.000000 10.000000 
R_mid_hand02 0.000000 0.000000 0.000000 0.000000 0.000000 0.000000 10.000000 
R_mid_hand03 0.000000 0.000000 0.000000 0.000000 0.000000 0.000000 10.000000 
spine02 0.000000 0.000000 0.000000 0.000000 0.000000 0.000000 10.000000 
spine03 0.000000 0.000000 0.000000 0.000000 0.000000 0.000000 10.000000 
pelvis 0.000000 0.000000 0.000000 0.000000 0.000000 0.000000 10.000000 
null_rope03_connect 0.000000 0.000000 0.000000 0.000000 0.000000 0.000000 10.000000 
null_rope04_connect 0.000000 0.000000 0.000000 0.000000 0.000000 0.000000 10.000000 
Rope3_Seg01 0.000000 0.000000 0.000000 0.000000 0.000000 0.000000 10.000000 
Rope3_Seg02 0.000000 0.000000 0.000000 0.000000 0.000000 0.000000 10.000000 
Rope3_Seg03 0.000000 0.000000 0.000000 0.000000 0.000000 0.000000 10.000000 
Rope3_Seg04 0.000000 0.000000 0.000000 0.000000 0.000000 0.000000 10.000000 
Rope3_Seg05 0.000000 0.000000 0.000000 0.000000 0.000000 0.000000 10.000000 
Rope3_Seg06 0.000000 0.000000 0.000000 0.000000 0.000000 0.000000 10.000000 
Rope3_Seg07 0.000000 0.000000 0.000000 0.000000 0.000000 0.000000 10.000000 
Rope3_Seg08 0.000000 0.000000 0.000000 0.000000 0.000000 0.000000 10.000000 
Rope3_Seg09 0.000000 0.000000 0.000000 0.000000 0.000000 0.000000 10.000000 
R_rear_hand01 0.000000 0.000000 0.000000 0.000000 0.000000 0.000000 10.000000 
R_rear_hand02 0.000000 0.000000 0.000000 0.000000 0.000000 0.000000 10.000000 
R_rear_hand03 0.000000 0.000000 0.000000 0.000000 0.000000 0.000000 10.000000 
Rope4_Seg01 0.000000 0.000000 0.000000 0.000000 0.000000 0.000000 10.000000 
Rope4_Seg02 0.000000 0.000000 0.000000 0.000000 0.000000 0.000000 10.000000 
Rope4_Seg03 0.000000 0.000000 0.000000 0.000000 0.000000 0.000000 10.000000 
Rope4_Seg04 0.000000 0.000000 0.000000 0.000000 0.000000 0.000000 10.000000 
Rope4_Seg05 0.000000 0.000000 0.000000 0.000000 0.000000 0.000000 10.000000 
Rope4_Seg06 0.000000 0.000000 0.000000 0.000000 0.000000 0.000000 10.000000 
Rope4_Seg07 0.000000 0.000000 0.000000 0.000000 0.000000 0.000000 10.000000 
Rope4_Seg08 0.000000 0.000000 0.000000 0.000000 0.000000 0.000000 10.000000 
Rope4_Seg09 0.000000 0.000000 0.000000 0.000000 0.000000 0.000000 10.000000 
L_rear_hand01 0.000000 0.000000 0.000000 0.000000 0.000000 0.000000 10.000000 
L_rear_hand02 0.000000 0.000000 0.000000 0.000000 0.000000 0.000000 10.000000 
L_rear_hand03 0.000000 0.000000 0.000000 0.000000 0.000000 0.000000 10.000000 
#Beginning of Data. Separated by tabs
#Fr	Tx	Ty	Tz	Rx	Ry	Rz	SF
[MASTER]
29 -0.000627 4147.987305 -2478.750977 0.001660 0.001660 0.001660 4832.184570
30 -0.000636 4203.910645 -2610.511719 0.001660 0.001660 0.001660 4948.498535
[root]
29 -37.194698 -123.534851 509.798279 -100.143822 -21.186659 -91.128067 525.869385
30 -69.605156 -124.003593 526.866150 -97.721802 -21.056248 -91.199646 545.719421
[chest]
29 -84.512650 -34.090519 0.000000 -8.139997 -0.647973 150.545181 91.129311
30 -84.512650 -34.090519 0.000000 -8.356101 -0.705032 150.130829 91.129311
[L_mid_tent01]
29 27.299309 22.177649 -249.918289 -0.911149 30.996950 67.762398 252.381165
30 27.299301 22.177652 -249.918289 -0.811286 31.801905 67.812790 252.381165
[R_mid_tent01]
29 23.228794 24.509907 226.238495 169.293320 -24.824772 66.380142 228.744751
30 23.228794 24.509907 226.238495 168.287369 -25.122225 68.728836 228.744751
[spine01]
29 -0.361383 -0.195265 0.000000 0.001845 0.001451 13.654368 0.410763
30 -0.361383 -0.195265 0.000000 0.001845 0.001451 13.654368 0.410763
[Bip01_Neck]
29 165.484543 71.581718 0.000119 176.643677 -1.657967 43.431911 180.302734
30 165.484543 71.581718 0.000119 176.643677 -1.657967 43.431911 180.302734
[L_humerus]
29 -13.983130 -135.272980 -120.471481 170.614685 33.535526 -94.799530 181.680161
30 -13.983130 -135.272980 -120.471481 171.936371 14.247597 -91.579773 181.680161
[R_humerus]
29 -13.983309 -135.273102 125.287651 -176.939209 -13.152035 -86.238922 184.909012
30 -13.983309 -135.273102 125.287651 -177.013885 -4.097614 -85.756828 184.909012
[weapon_bone]
29 235.964890 -300.705902 0.000000 0.000000 -89.951546 -128.212341 382.234833
30 235.964890 -300.705902 0.000000 0.000000 -89.951546 -128.212341 382.234833
[Bip01_Head]
29 213.326721 186.042328 7.559190 5.200446 6.151311 -43.834991 283.155762
30 213.330078 186.033325 7.675085 5.200446 6.151311 -43.834991 283.155487
[eye_left_bone]
29 -24.626970 125.451866 -64.772606 0.000000 -90.000000 -99.840431 143.318359
30 -24.626970 125.451866 -64.772606 0.000000 -90.000000 -99.840431 143.318359
[eye_right_bone]
29 -24.626970 125.451866 64.327362 0.000000 -89.965736 80.156380 143.117676
30 -24.626970 125.451866 64.327362 0.000000 -89.965736 80.156380 143.117676
[L_forearm]
29 322.776093 0.000000 -0.000119 0.000119 -0.002344 -95.807457 322.776093
30 322.776093 0.000000 -0.000119 0.000119 -0.002344 -95.807457 322.776093
[L_front_hand]
29 241.149185 -0.042021 -3.300071 -178.667953 -1.835447 -27.422350 241.171753
30 241.149185 -0.042021 -3.300071 -178.667953 -1.835447 -27.422350 241.171753
[L_weapon_bone]
29 156.183838 0.000000 0.000000 0.000014 0.000007 0.000001 156.183838
30 156.183838 0.000000 0.000000 0.000014 0.000007 0.000001 156.183838
[L_front_hand01_01]
29 86.095154 20.947098 -0.655860 -0.366594 -0.477154 75.385574 88.609184
30 86.095154 20.947098 -0.655860 -0.366594 -0.477154 75.385574 88.609184
[L_front_hand02_01]
29 86.935165 -11.437475 24.513514 154.399811 -59.883842 -61.369598 91.046425
30 86.935165 -11.437475 24.513514 154.399796 -59.883835 -61.369587 91.046425
[L_front_hand03_01]
29 86.637497 -14.123976 -20.424902 -153.913849 58.118122 -62.702850 90.126129
30 86.637497 -14.123976 -20.424902 -153.913849 58.118122 -62.702866 90.126129
[L_front_hand01_02]
29 71.020905 -0.000179 0.000030 0.000332 -0.002324 -106.274643 71.020905
30 71.020905 -0.000179 0.000030 0.000333 -0.002323 -106.320984 71.020905
[L_front_hand02_02]
29 71.020927 -0.000119 0.000060 0.000332 -0.002324 -106.274643 71.020927
30 71.020927 -0.000119 0.000060 0.000333 -0.002323 -106.320984 71.020927
[L_front_hand03_02]
29 71.020905 -0.000060 0.000060 0.000332 -0.002324 -106.274643 71.020905
30 71.020905 -0.000060 0.000060 0.000333 -0.002323 -106.320984 71.020905
[R_forearm]
29 322.776428 -0.000060 0.000030 0.209504 0.012586 -94.339050 322.776428
30 322.776428 -0.000060 0.000030 0.209504 0.012586 -94.339050 322.776428
[R_front_hand]
29 238.847015 -0.006795 2.210259 -2.635298 -10.645461 -26.312506 238.857239
30 238.847015 -0.006795 2.210259 -2.635298 -10.645461 -26.312506 238.857239
[R_weapon_bone]
29 155.664093 0.002503 -0.000030 0.003487 0.001180 -90.988930 155.664078
30 155.664093 0.002503 -0.000030 0.003487 0.001180 -90.988930 155.664078
[R_front_hand01_01]
29 87.624611 14.231146 22.918642 -154.633514 -59.950634 61.746063 91.683487
30 87.624611 14.231146 22.918642 -154.633484 -59.950607 61.746033 91.683487
[R_front_hand02_01]
29 89.356956 14.367283 -19.491137 154.602661 58.302849 63.744389 92.579636
30 89.356956 14.367283 -19.491137 154.602661 58.302849 63.744389 92.579636
[R_front_hand03_01]
29 87.286232 -22.307278 -0.143439 0.162155 -0.423168 -75.767921 90.091743
30 87.286232 -22.307278 -0.143439 0.162155 -0.423168 -75.767906 90.091743
[R_front_hand01_02]
29 71.020905 0.000060 0.000119 0.002323 -0.000334 106.381714 71.020905
30 71.020905 0.000060 0.000119 0.002323 -0.000334 106.381714 71.020905
[R_front_hand02_02]
29 71.020844 -0.000030 -0.000119 0.002323 -0.000334 106.381714 71.020836
30 71.020844 -0.000030 -0.000119 0.002323 -0.000334 106.381714 71.020836
[R_front_hand03_02]
29 71.020905 0.000000 0.000030 0.002323 -0.000334 106.381714 71.020905
30 71.020905 0.000000 0.000030 0.002323 -0.000334 106.381714 71.020905
[null_rope01_connect]
29 328.732483 0.000000 -0.000238 -141.733139 -48.657700 -174.421204 328.732483
30 328.732483 0.000000 -0.000238 -140.682220 -50.133163 -175.851425 328.732483
[Rope1_Seg01]
29 0.000000 0.000000 0.000000 76.228981 -37.641964 -148.526794 0.000000
30 0.000000 0.000000 0.000000 78.144310 -32.664616 -149.441086 0.000000
[Rope1_Seg02]
29 139.999863 -0.000179 0.000000 5.508319 -5.812341 -10.096650 139.999863
30 139.999863 -0.000179 0.000000 8.269297 -7.349204 -12.337076 139.999863
[Rope1_Seg03]
29 139.999924 0.000060 -0.000060 41.778725 -25.204092 -50.191383 139.999924
30 139.999924 0.000060 -0.000060 54.093285 -30.503138 -59.123123 139.999924
[Rope1_Seg04]
29 139.999924 -0.000060 -0.000119 27.153196 -44.838657 -28.733868 139.999924
30 139.999924 -0.000060 -0.000119 12.130014 -41.515171 -11.310504 139.999924
[Rope1_Seg05]
29 139.999832 0.000119 -0.000060 -1.624066 -15.666685 9.501824 139.999832
30 139.999832 0.000119 -0.000060 -1.859210 -13.992273 10.084270 139.999832
[Rope1_Seg06]
29 139.999954 0.000119 -0.000060 -1.776798 -10.020559 4.865828 139.999954
30 139.999954 0.000119 -0.000060 -1.704158 -8.168970 3.808405 139.999954
[Rope1_Seg07]
29 139.999985 0.000060 0.000000 -1.475451 -5.621125 1.842054 139.999985
30 139.999985 0.000060 0.000000 -1.294304 -4.620342 1.692396 139.999985
[Rope1_Seg09]
29 121.602913 0.000119 -0.000089 -89.793175 -1.359789 0.847147 121.602913
30 121.602913 0.000119 -0.000089 -89.793175 -1.359789 0.847147 121.602913
[L_mid_hand01]
29 103.859421 1.038730 8.195221 130.544373 -67.584534 -38.866943 104.187431
30 103.859421 1.038730 8.195221 130.544373 -67.584534 -38.866943 104.187431
[L_mid_hand02]
29 105.572853 -4.139662 -10.864139 -168.923172 43.409309 -73.498886 106.211075
30 105.572853 -4.139662 -10.864139 -168.923172 43.409309 -73.498886 106.211075
[L_mid_hand03]
29 104.641464 17.579376 -3.913581 -6.012627 17.808174 74.893669 106.179977
30 104.641464 17.579376 -3.913581 -6.012627 17.808174 74.893669 106.179977
[null_rope02_connect]
29 328.732849 0.000179 -0.000119 -91.822449 69.769020 42.782204 328.732849
30 328.732849 0.000179 -0.000119 -98.806290 68.207596 37.589924 328.732849
[Rope2_Seg01]
29 0.000053 0.000058 0.000095 133.014374 25.954433 -61.129559 0.000123
30 0.000052 0.000054 0.000098 123.768929 22.595537 -60.281372 0.000124
[Rope2_Seg02]
29 139.999741 -0.000060 -0.000119 74.292557 -2.858519 -32.417870 139.999756
30 139.999741 -0.000060 -0.000119 86.520142 2.003407 -34.969330 139.999756
[Rope2_Seg03]
29 140.000107 0.000030 0.000000 18.144339 -28.081167 -8.219337 140.000107
30 140.000107 0.000030 0.000000 17.501812 -37.013828 -6.730016 140.000107
[Rope2_Seg04]
29 139.999802 0.000000 -0.000060 -5.472841 -43.526096 16.430111 139.999802
30 139.999802 0.000000 -0.000060 -5.921802 -38.775558 17.317940 139.999802
[Rope2_Seg05]
29 139.999985 -0.000060 0.000119 -1.672803 -17.261923 6.141555 139.999985
30 139.999985 -0.000060 0.000119 -0.986911 -13.554985 5.544942 139.999985
[Rope2_Seg06]
29 139.999893 -0.000030 -0.000119 -0.679295 -5.753021 1.724489 139.999893
30 139.999893 -0.000030 -0.000119 -0.416470 -4.944694 1.772130 139.999893
[Rope2_Seg07]
29 139.999893 0.000060 -0.000060 -0.448858 -3.150648 0.909530 139.999893
30 139.999893 0.000060 -0.000060 -0.274393 -2.780803 0.977974 139.999893
[Rope2_Seg09]
29 121.338966 0.000089 -0.000060 33.793236 -1.359788 -0.847141 121.338966
30 121.338966 0.000089 -0.000060 33.793236 -1.359788 -0.847141 121.338966
[R_mid_hand01]
29 104.680779 11.144459 -10.335981 -21.077972 43.559654 63.514454 105.778534
30 104.680779 11.144459 -10.335981 -18.585432 44.487873 67.094742 105.778534
[R_mid_hand02]
29 104.070427 2.443552 8.231699 56.113041 -63.580791 31.561995 104.424065
30 104.070427 2.443552 8.231699 52.755077 -65.811348 35.278687 104.424065
[R_mid_hand03]
29 106.028137 -11.221827 -5.996406 -175.658295 15.220737 -71.161560 106.788818
30 106.028137 -11.221827 -5.996406 -176.406250 15.411082 -73.996964 106.788818
[spine02]
29 129.756927 0.001550 0.000119 -1.023899 -3.926965 6.770993 129.756927
30 129.756927 0.001550 0.000119 -1.023899 -3.926965 6.770993 129.756927
[spine03]
29 78.614243 0.087243 -4.898872 1.040680 4.146419 4.212375 78.766777
30 78.614258 0.087236 -4.898872 1.040681 4.146420 4.212376 78.766792
[pelvis]
29 169.435242 0.051022 0.000000 0.019518 -0.190233 -10.721436 169.435257
30 169.435242 0.051022 0.000000 0.019518 -0.190233 -10.721436 169.435257
[null_rope03_connect]
29 -1.257226 -2.466202 137.391083 -153.401474 -79.098495 -109.344818 137.418976
30 -1.257226 -2.466202 137.391083 -151.537292 -81.473732 -111.321152 137.418976
[null_rope04_connect]
29 -1.259640 -2.480268 -137.844437 -153.401474 -79.098495 -109.344818 137.872513
30 -1.259640 -2.480268 -137.844437 -151.537292 -81.473732 -111.321152 137.872513
[Rope3_Seg01]
29 -0.000007 -0.000409 -0.000153 -132.447403 -30.488264 -78.389153 0.000436
30 -0.000007 -0.000420 -0.000153 -132.531540 -29.425428 -77.920471 0.000447
[Rope3_Seg02]
29 139.999924 -0.000119 0.000060 2.514496 -18.360338 -43.226398 139.999924
30 139.999924 -0.000119 0.000060 -0.889128 -15.507751 -43.737068 139.999924
[Rope3_Seg03]
29 139.999924 -0.000119 0.000119 -7.900695 -2.114991 -11.070978 139.999924
30 139.999924 -0.000119 0.000119 -11.685701 -0.256323 -12.295386 139.999924
[Rope3_Seg04]
29 139.999924 0.000119 0.000000 -11.287044 -4.581416 -12.529636 139.999924
30 139.999924 0.000119 0.000000 -19.254656 -3.570365 -14.922659 139.999924
[Rope3_Seg05]
29 139.999924 -0.000238 0.000060 -145.152954 -7.882588 -40.080376 139.999924
30 139.999924 -0.000238 0.000060 -130.972168 1.075260 -45.567318 139.999924
[Rope3_Seg06]
29 139.999893 -0.000119 -0.000060 0.355662 21.957111 24.590511 139.999893
30 139.999893 -0.000119 -0.000060 -1.015437 21.114166 20.491386 139.999893
[Rope3_Seg07]
29 139.999771 0.000060 -0.000119 0.582563 6.712109 8.366301 139.999771
30 139.999771 0.000060 -0.000119 0.352904 6.295886 7.009394 139.999771
[Rope3_Seg08]
29 139.999985 -0.000060 0.000000 0.525593 3.126683 3.868474 139.999985
30 139.999985 -0.000060 0.000000 0.458082 2.967395 3.289140 139.999985
[Rope3_Seg09]
29 90.185997 -0.000179 -0.000060 89.793228 -1.359877 -0.847183 90.185997
30 90.185997 -0.000179 -0.000060 89.793228 -1.359877 -0.847183 90.185997
[R_rear_hand01]
29 103.366196 -6.073594 -10.757982 -175.487595 24.273657 -68.532684 104.101845
30 103.366196 -6.073594 -10.757982 -176.652313 24.449371 -71.361534 104.101845
[R_rear_hand02]
29 100.509819 12.039542 -7.992327 -16.360678 35.627857 66.274040 101.543350
30 100.509819 12.039542 -7.992327 -14.552657 36.319756 69.354675 101.543350
[R_rear_hand03]
29 101.539970 5.215704 5.435467 75.232681 -67.112556 17.511589 101.819031
30 101.539970 5.215704 5.435467 73.490242 -69.598801 19.389946 101.819031
[Rope4_Seg01]
29 -0.000053 -0.000072 0.000000 48.868031 -29.152206 -97.796852 0.000089
30 -0.000052 -0.000068 0.000000 50.247902 -29.782757 -100.617043 0.000085
[Rope4_Seg02]
29 139.999985 0.000060 0.000119 5.520459 -35.387280 6.702073 139.999985
30 139.999985 0.000060 0.000119 6.531126 -34.539871 5.381198 139.999985
[Rope4_Seg03]
29 139.999924 0.000000 -0.000238 20.530216 -27.838638 14.233842 139.999924
30 139.999924 0.000000 -0.000238 22.260088 -27.439590 14.657091 139.999924
[Rope4_Seg04]
29 139.999985 0.000000 0.000119 24.292692 -17.361362 12.878197 139.999985
30 139.999985 0.000000 0.000119 28.808935 -19.717625 14.095740 139.999985
[Rope4_Seg05]
29 139.999802 -0.000060 -0.000119 40.586681 -20.915388 29.498529 139.999802
30 139.999802 -0.000060 -0.000119 42.647541 -20.919107 33.595974 139.999802
[Rope4_Seg06]
29 139.999924 0.000000 0.000060 13.791812 2.711053 18.983917 139.999924
30 139.999924 0.000000 0.000060 10.799164 4.361819 16.780579 139.999924
[Rope4_Seg07]
29 139.999802 0.000000 0.000000 3.337738 2.889611 6.691973 139.999802
30 139.999802 0.000000 0.000000 2.643770 2.985610 5.942275 139.999802
[Rope4_Seg08]
29 139.999924 0.000000 0.000119 -0.136815 1.683063 3.373463 139.999924
30 139.999924 0.000000 0.000119 -0.419478 1.679974 2.998228 139.999924
[Rope4_Seg09]
29 90.185791 0.000060 0.000060 -135.617828 2.228885 0.850567 90.185791
30 90.185791 0.000060 0.000060 -135.617828 2.228885 0.850567 90.185791
[L_rear_hand01]
29 101.696655 -8.392275 -7.654577 -13.120160 -36.794415 108.245636 102.329041
30 101.696655 -8.392275 -7.654577 -12.874829 -36.868488 107.832764 102.329041
[L_rear_hand02]
29 102.726799 -1.568258 5.773216 71.814774 71.499886 158.834518 102.900848
30 102.726799 -1.568258 5.773216 71.484581 71.816628 158.486160 102.900848
[L_rear_hand03]
29 104.552910 9.721220 -10.420293 -177.558792 -24.551929 -106.459061 105.519653
30 104.552910 9.721220 -10.420293 -177.714203 -24.565960 -106.089035 105.519653
